<?xml version="1.0" encoding="UTF-8" standalone="no"?><!-- Generator: Gravit.io --><svg xmlns="http://www.w3.org/2000/svg" xmlns:xlink="http://www.w3.org/1999/xlink" style="isolation:isolate" viewBox="0 0 512 512" width="512pt" height="512pt"><g><path d=" M -41.188 -41.188 L 553.188 -41.188 L 553.188 553.188 L -41.188 553.188 L -41.188 -41.188 Z " fill="none"/></g><g><path d=" M 108.494 373.677 L 108.494 206.831 L 403.506 206.831 L 403.506 432.679 L 108.494 373.677 Z " fill="rgb(186,224,189)"/><path d=" M 387.116 223.221 L 387.116 412.684 L 124.884 360.237 L 124.884 223.221 L 387.116 223.221 Z  M 419.895 190.442 L 92.105 190.442 L 92.105 387.116 L 419.895 452.674 L 419.895 190.442 Z " fill="rgb(94,156,118)"/><path d=" M 75.715 339.259 L 75.715 141.273 L 436.285 141.273 L 436.285 369.317 L 75.715 339.259 Z " fill="rgb(186,224,189)"/><path d=" M 419.895 157.663 L 419.895 351.485 L 92.105 324.18 L 92.105 157.663 L 419.895 157.663 Z  M 452.674 124.884 L 59.326 124.884 L 59.326 354.337 L 452.674 387.116 L 452.674 124.884 Z " fill="rgb(94,156,118)"/><rect x="42.936" y="75.715" width="426.127" height="229.453" transform="matrix(1,0,0,1,0,0)" fill="rgb(186,224,189)"/><path d=" M 452.674 92.105 L 452.674 288.779 L 59.326 288.779 L 59.326 92.105 L 452.674 92.105 Z  M 485.453 59.326 L 26.547 59.326 L 26.547 321.558 L 485.453 321.558 L 485.453 59.326 Z " fill="rgb(94,156,118)"/><path d=" M 257.482 209.831 C 275.543 209.831 290.261 177.574 290.261 195.635 C 290.261 213.696 275.543 228.414 257.482 228.414 C 239.421 228.414 224.703 213.696 224.703 195.635 C 224.703 177.574 239.421 209.831 257.482 209.831 Z " fill="rgb(94,156,118)"/><circle vector-effect="non-scaling-stroke" cx="124.88392857142858" cy="190.44196428571425" r="32.779017857142854" fill="rgb(94,156,118)"/><circle vector-effect="non-scaling-stroke" cx="387.11607142857144" cy="190.44196428571425" r="32.77901785714283" fill="rgb(94,156,118)"/></g></svg>